<mxfile host="app.diagrams.net" modified="2023-06-12T14:19:06.290Z" agent="Mozilla/5.0 (Windows NT 10.0; Win64; x64) AppleWebKit/537.36 (KHTML, like Gecko) Chrome/114.0.0.0 Safari/537.36" etag="9x5KEJPydL-vPRUS5nRt" version="21.3.8" type="github">
  <diagram name="Page-1" id="2YBvvXClWsGukQMizWep">
    <mxGraphModel dx="472" dy="750" grid="1" gridSize="10" guides="1" tooltips="1" connect="1" arrows="1" fold="1" page="1" pageScale="1" pageWidth="850" pageHeight="1100" math="0" shadow="0">
      <root>
        <mxCell id="0" />
        <mxCell id="1" parent="0" />
        <mxCell id="hWTPwDybrQrSJplKiW1O-2" value="Sentiment Analysis on Voice Data&lt;br&gt;(RAVDESS Dataset)" style="rounded=1;whiteSpace=wrap;html=1;" vertex="1" parent="1">
          <mxGeometry x="80" y="150" width="120" height="60" as="geometry" />
        </mxCell>
        <mxCell id="hWTPwDybrQrSJplKiW1O-9" style="edgeStyle=orthogonalEdgeStyle;rounded=0;orthogonalLoop=1;jettySize=auto;html=1;" edge="1" parent="1" source="hWTPwDybrQrSJplKiW1O-3">
          <mxGeometry relative="1" as="geometry">
            <mxPoint x="430" y="180" as="targetPoint" />
          </mxGeometry>
        </mxCell>
        <mxCell id="hWTPwDybrQrSJplKiW1O-3" value="Convert Speech(voice) to Text(embeddings)" style="rounded=1;whiteSpace=wrap;html=1;" vertex="1" parent="1">
          <mxGeometry x="270" y="150" width="120" height="60" as="geometry" />
        </mxCell>
        <mxCell id="hWTPwDybrQrSJplKiW1O-5" value="" style="endArrow=classic;html=1;rounded=0;" edge="1" parent="1" source="hWTPwDybrQrSJplKiW1O-2">
          <mxGeometry width="50" height="50" relative="1" as="geometry">
            <mxPoint x="200" y="230" as="sourcePoint" />
            <mxPoint x="270.71067811865476" y="180" as="targetPoint" />
          </mxGeometry>
        </mxCell>
        <mxCell id="hWTPwDybrQrSJplKiW1O-8" style="edgeStyle=orthogonalEdgeStyle;rounded=0;orthogonalLoop=1;jettySize=auto;html=1;entryX=0.5;entryY=0;entryDx=0;entryDy=0;" edge="1" parent="1" source="hWTPwDybrQrSJplKiW1O-7" target="hWTPwDybrQrSJplKiW1O-2">
          <mxGeometry relative="1" as="geometry" />
        </mxCell>
        <mxCell id="hWTPwDybrQrSJplKiW1O-7" value="Input voice data" style="ellipse;whiteSpace=wrap;html=1;" vertex="1" parent="1">
          <mxGeometry x="80" y="30" width="120" height="80" as="geometry" />
        </mxCell>
        <mxCell id="hWTPwDybrQrSJplKiW1O-18" style="edgeStyle=orthogonalEdgeStyle;rounded=0;orthogonalLoop=1;jettySize=auto;html=1;entryX=0.5;entryY=0;entryDx=0;entryDy=0;" edge="1" parent="1" source="hWTPwDybrQrSJplKiW1O-10" target="hWTPwDybrQrSJplKiW1O-13">
          <mxGeometry relative="1" as="geometry" />
        </mxCell>
        <mxCell id="hWTPwDybrQrSJplKiW1O-10" value="Emotional Analysis on the text data" style="rounded=1;whiteSpace=wrap;html=1;" vertex="1" parent="1">
          <mxGeometry x="430" y="150" width="120" height="60" as="geometry" />
        </mxCell>
        <mxCell id="hWTPwDybrQrSJplKiW1O-14" style="edgeStyle=orthogonalEdgeStyle;rounded=0;orthogonalLoop=1;jettySize=auto;html=1;" edge="1" parent="1" source="hWTPwDybrQrSJplKiW1O-13">
          <mxGeometry relative="1" as="geometry">
            <mxPoint x="380" y="310" as="targetPoint" />
          </mxGeometry>
        </mxCell>
        <mxCell id="hWTPwDybrQrSJplKiW1O-13" value="Combine the results using custom mapping to get:&lt;br&gt;&quot;Emotional Quotient&quot;" style="rounded=1;whiteSpace=wrap;html=1;" vertex="1" parent="1">
          <mxGeometry x="430" y="270" width="120" height="80" as="geometry" />
        </mxCell>
        <mxCell id="hWTPwDybrQrSJplKiW1O-16" style="edgeStyle=orthogonalEdgeStyle;rounded=0;orthogonalLoop=1;jettySize=auto;html=1;" edge="1" parent="1" source="hWTPwDybrQrSJplKiW1O-15">
          <mxGeometry relative="1" as="geometry">
            <mxPoint x="210" y="310" as="targetPoint" />
          </mxGeometry>
        </mxCell>
        <mxCell id="hWTPwDybrQrSJplKiW1O-15" value="Explore generation/response dataset building" style="rounded=1;whiteSpace=wrap;html=1;" vertex="1" parent="1">
          <mxGeometry x="260" y="280" width="120" height="60" as="geometry" />
        </mxCell>
        <mxCell id="hWTPwDybrQrSJplKiW1O-17" value="Output of the system&lt;br&gt;&amp;nbsp;- Emotional Quotient&lt;br&gt;&amp;nbsp;- Response" style="ellipse;whiteSpace=wrap;html=1;" vertex="1" parent="1">
          <mxGeometry x="90" y="270" width="120" height="80" as="geometry" />
        </mxCell>
      </root>
    </mxGraphModel>
  </diagram>
</mxfile>
